HIERARCHY
ROOT pelvis
{
	OFFSET 0.000000 0.000000 0.000000
	CHANNELS 6 Xposition Yposition Zposition Xrotation Yrotation Zrotation
	JOINT l_hip
	{
		OFFSET 0.195211 -0.245059 -0.022011
		CHANNELS 3 Xrotation Yrotation Zrotation
		JOINT l_knee
		{
			OFFSET 0.083896 -0.996307 -0.018298
			CHANNELS 3 Xrotation Yrotation Zrotation
			JOINT l_ankle
			{
				OFFSET -0.031606 -1.048662 -0.119000
				CHANNELS 3 Xrotation Yrotation Zrotation
				JOINT l_foot
				{
					OFFSET 0.063841 -0.149483 0.312863
					CHANNELS 3 Xrotation Yrotation Zrotation
					End Site
					{
						OFFSET 0.000000 0.000000 0.000000
					}
				}
			}
		}
	}
	JOINT r_hip
	{
		OFFSET -0.188785 -0.243354 -0.013119
		CHANNELS 3 Xrotation Yrotation Zrotation
		JOINT r_knee
		{
			OFFSET -0.098896 -1.013926 -0.025127
			CHANNELS 3 Xrotation Yrotation Zrotation
			JOINT r_ankle
			{
				OFFSET 0.038376 -1.049454 -0.114596
				CHANNELS 3 Xrotation Yrotation Zrotation
				JOINT r_foot
				{
					OFFSET -0.060300 -0.126955 0.322518
					CHANNELS 3 Xrotation Yrotation Zrotation
					End Site
					{
						OFFSET 0.000000 0.000000 0.000000
					}
				}
			}
		}
	}
	JOINT spine1
	{
		OFFSET -0.006861 0.282462 -0.060688
		CHANNELS 3 Xrotation Yrotation Zrotation
		JOINT spine2
		{
			OFFSET 0.009796 0.349212 -0.004686
			CHANNELS 3 Xrotation Yrotation Zrotation
			JOINT spine3
			{
				OFFSET 0.005545 0.134239 0.076232
				CHANNELS 3 Xrotation Yrotation Zrotation
				JOINT neck
				{
					OFFSET -0.005369 0.569656 -0.136135
					CHANNELS 3 Xrotation Yrotation Zrotation
					JOINT head
					{
						OFFSET 0.009621 0.170484 0.137338
						CHANNELS 3 Xrotation Yrotation Zrotation
						End Site
						{
							OFFSET 0.000000 0.000000 0.000000
						}
					}
				}
				JOINT l_collar
				{
					OFFSET 0.205981 0.322192 -0.100872
					CHANNELS 3 Xrotation Yrotation Zrotation
					JOINT l_shoulder
					{
						OFFSET 0.233388 0.086823 -0.019950
						CHANNELS 3 Xrotation Yrotation Zrotation
						JOINT l_elbow
						{
							OFFSET 0.687295 -0.032736 -0.075278
							CHANNELS 3 Xrotation Yrotation Zrotation
							JOINT l_wrist
							{
								OFFSET 0.651109 0.024639 0.000120
								CHANNELS 3 Xrotation Yrotation Zrotation
								JOINT l_hand
								{
									OFFSET 0.217934 -0.026487 -0.036124
									CHANNELS 3 Xrotation Yrotation Zrotation
									End Site
									{
										OFFSET 0.000000 0.000000 0.000000
									}
								}
							}
						}
					}
				}
				JOINT r_collar
				{
					OFFSET -0.210726 0.316244 -0.114374
					CHANNELS 3 Xrotation Yrotation Zrotation
					JOINT r_shoulder
					{
						OFFSET -0.244017 0.089684 -0.026814
						CHANNELS 3 Xrotation Yrotation Zrotation
						JOINT r_elbow
						{
							OFFSET -0.672913 -0.035979 -0.055153
							CHANNELS 3 Xrotation Yrotation Zrotation
							JOINT r_wrist
							{
								OFFSET -0.670689 0.023586 -0.009661
								CHANNELS 3 Xrotation Yrotation Zrotation
								JOINT r_hand
								{
									OFFSET -0.219937 -0.019827 -0.028502
									CHANNELS 3 Xrotation Yrotation Zrotation
									End Site
									{
										OFFSET 0.000000 0.000000 0.000000
									}
								}
							}
						}
					}
				}
			}
		}
	}
}
MOTION
Frames: 13
Frame Time: 0.016667
0.000000 0.000000 0.000000 0.000000 0.000000 0.000000 34.545758 18.439005 -1.232353 -4.180601 1.919107 -0.312458 0.000000 0.000000 0.000000 0.000000 0.000000 0.000000 9.103056 0.593755 -2.137447 31.476460 0.010409 -5.823623 0.000000 0.000000 0.000000 0.000000 0.000000 0.000000 39.400007 -1.615541 2.034300 20.230572 1.562371 -12.215799 -5.217085 4.203217 -0.829039 17.550976 -11.086639 -16.512404 -13.448036 8.117589 -5.077617 -8.068588 -25.452684 -24.902807 -1.220303 -21.923311 -46.855109 89.461367 -59.004704 99.973928 0.000000 0.000000 0.000000 0.000000 0.000000 0.000000 4.325994 39.338798 -1.019348 -5.886770 21.525511 36.691397 97.940577 70.956219 -108.807125 0.000000 0.000000 0.000000 0.000000 0.000000 0.000000 
0.000000 0.000000 0.000000 0.000000 0.000000 0.000000 34.637514 18.623732 -1.159791 -4.307272 1.915526 -0.301544 0.000000 0.000000 0.000000 0.000000 0.000000 0.000000 9.074277 0.530251 -1.921700 28.629965 0.424614 -5.719429 0.000000 0.000000 0.000000 0.000000 0.000000 0.000000 39.309657 -1.588325 2.074053 20.224194 1.498765 -12.304639 -5.243416 4.245466 -0.785351 17.583885 -11.159947 -16.549533 -13.516787 8.014914 -4.871328 -8.174141 -25.386671 -24.923593 -1.188832 -21.990437 -46.901175 89.552903 -59.233426 100.162599 0.000000 0.000000 0.000000 0.000000 0.000000 0.000000 4.421810 39.305916 -1.188820 -6.057698 21.525212 36.251855 98.414737 71.095044 -108.889092 0.000000 0.000000 0.000000 0.000000 0.000000 0.000000 
0.000000 0.000000 0.000000 0.000000 0.000000 0.000000 34.676469 18.831231 -1.028912 -4.368889 1.935290 -0.313962 0.000000 0.000000 0.000000 0.000000 0.000000 0.000000 9.100206 0.504533 -1.634956 25.868805 0.965145 -5.601993 0.000000 0.000000 0.000000 0.000000 0.000000 0.000000 39.207185 -1.570053 2.144083 20.213458 1.449074 -12.409402 -5.252780 4.295922 -0.751805 17.612047 -11.257725 -16.632471 -13.583789 7.942342 -4.679804 -8.294872 -25.319962 -24.942456 -1.179714 -22.021841 -46.965411 89.638108 -59.460329 100.329128 0.000000 0.000000 0.000000 0.000000 0.000000 0.000000 4.524669 39.300848 -1.407136 -6.249358 21.515602 35.822001 98.826071 71.266782 -108.876587 0.000000 0.000000 0.000000 0.000000 0.000000 0.000000 
0.000000 0.000000 0.000000 0.000000 0.000000 0.000000 34.689470 19.095647 -0.843202 -4.353230 1.949232 -0.366154 0.000000 0.000000 0.000000 0.000000 0.000000 0.000000 9.192264 0.419204 -1.360277 23.311853 1.576591 -5.414147 0.000000 0.000000 0.000000 0.000000 0.000000 0.000000 39.095216 -1.553059 2.236054 20.221648 1.404243 -12.515194 -5.278909 4.366780 -0.717571 17.696338 -11.440974 -16.770249 -13.692851 7.919651 -4.485447 -8.417425 -25.242349 -24.985962 -1.197227 -22.048500 -47.068608 89.636860 -59.662154 100.398867 0.000000 0.000000 0.000000 0.000000 0.000000 0.000000 4.682201 39.308711 -1.659254 -6.461869 21.497893 35.384554 99.206011 71.442682 -108.805087 0.000000 0.000000 0.000000 0.000000 0.000000 0.000000 
0.000000 0.000000 0.000000 0.000000 0.000000 0.000000 34.767536 19.366270 -0.666656 -4.307313 1.964850 -0.451090 0.000000 0.000000 0.000000 0.000000 0.000000 0.000000 9.405642 0.287483 -1.158316 21.026923 2.093196 -5.130110 0.000000 0.000000 0.000000 0.000000 0.000000 0.000000 39.018175 -1.528710 2.280681 20.250838 1.346640 -12.581474 -5.346608 4.448054 -0.676799 17.855553 -11.675372 -16.931653 -13.851912 7.939972 -4.314105 -8.524955 -25.145548 -25.035785 -1.199468 -22.151076 -47.218831 89.460931 -59.863136 100.354787 0.000000 0.000000 0.000000 0.000000 0.000000 0.000000 4.831243 39.277329 -1.880174 -6.635751 21.548952 34.933811 99.532045 71.600141 -108.698038 0.000000 0.000000 0.000000 0.000000 0.000000 0.000000 
0.000000 0.000000 0.000000 0.000000 0.000000 0.000000 34.925302 19.628719 -0.518996 -4.215783 1.985146 -0.559656 0.000000 0.000000 0.000000 0.000000 0.000000 0.000000 9.732258 0.057475 -1.067630 19.152440 2.532434 -4.759893 0.000000 0.000000 0.000000 0.000000 0.000000 0.000000 38.970416 -1.498158 2.260413 20.315183 1.279815 -12.602287 -5.455020 4.532676 -0.634117 18.050670 -11.902910 -17.094980 -13.988983 8.004462 -4.194799 -8.606482 -25.029105 -25.075394 -1.225055 -22.302051 -47.411432 89.194740 -60.076715 100.228041 0.000000 0.000000 0.000000 0.000000 0.000000 0.000000 4.928484 39.200525 -2.023073 -6.787273 21.669489 34.472537 99.798020 71.810544 -108.533118 0.000000 0.000000 0.000000 0.000000 0.000000 0.000000 
0.000000 0.000000 0.000000 0.000000 0.000000 0.000000 35.107343 19.799598 -0.423826 -4.059648 2.047710 -0.646604 0.000000 0.000000 0.000000 0.000000 0.000000 0.000000 10.063271 -0.249114 -1.059177 17.906596 2.830561 -4.423163 0.000000 0.000000 0.000000 0.000000 0.000000 0.000000 38.909360 -1.474803 2.186790 20.403948 1.235711 -12.592328 -5.554585 4.602718 -0.603665 18.201243 -12.093877 -17.234586 -14.026101 8.122019 -4.153487 -8.644331 -24.927763 -25.119856 -1.322461 -22.426308 -47.550723 88.990196 -60.344211 100.088604 0.000000 0.000000 0.000000 0.000000 0.000000 0.000000 4.947177 39.120077 -2.056232 -6.893483 21.822720 33.958227 100.026706 72.121046 -108.358606 0.000000 0.000000 0.000000 0.000000 0.000000 0.000000 
0.000000 0.000000 0.000000 0.000000 0.000000 0.000000 35.304254 19.817959 -0.433309 -3.869039 2.109398 -0.678816 0.000000 0.000000 0.000000 0.000000 0.000000 0.000000 10.334327 -0.545754 -1.126284 17.399784 2.914897 -4.289452 0.000000 0.000000 0.000000 0.000000 0.000000 0.000000 38.812990 -1.470021 2.111029 20.500823 1.220773 -12.609715 -5.576766 4.626970 -0.606755 18.236749 -12.255026 -17.321456 -13.953804 8.280024 -4.197551 -8.638274 -24.906589 -25.172434 -1.488733 -22.470908 -47.551803 88.892978 -60.631229 99.979475 0.000000 0.000000 0.000000 0.000000 0.000000 0.000000 4.904239 39.110113 -2.055536 -6.932338 21.962155 33.455642 100.178171 72.475110 -108.231692 0.000000 0.000000 0.000000 0.000000 0.000000 0.000000 
0.000000 0.000000 0.000000 0.000000 0.000000 0.000000 35.487417 19.829655 -0.473333 -3.577340 2.070909 -0.675994 0.000000 0.000000 0.000000 0.000000 0.000000 0.000000 10.652947 -0.820186 -1.271422 17.332007 2.847663 -4.314205 0.000000 0.000000 0.000000 0.000000 0.000000 0.000000 38.739173 -1.480508 2.084530 20.581029 1.194841 -12.649703 -5.578636 4.623061 -0.629332 18.233332 -12.346862 -17.342422 -13.807706 8.379306 -4.336760 -8.609909 -24.968864 -25.246607 -1.669216 -22.452781 -47.491215 88.780685 -60.823492 99.870269 0.000000 0.000000 0.000000 0.000000 0.000000 0.000000 4.861583 39.170618 -2.056356 -6.967231 22.029622 33.047401 100.162997 72.764697 -108.013111 0.000000 0.000000 0.000000 0.000000 0.000000 0.000000 
0.000000 0.000000 0.000000 0.000000 0.000000 0.000000 35.597607 19.888951 -0.437827 -3.163264 1.919298 -0.685597 0.000000 0.000000 0.000000 0.000000 0.000000 0.000000 11.105155 -1.013785 -1.447320 17.243636 2.815397 -4.337733 0.000000 0.000000 0.000000 0.000000 0.000000 0.000000 38.734135 -1.478258 2.108722 20.601246 1.140642 -12.682402 -5.587811 4.600448 -0.647483 18.290774 -12.393182 -17.322919 -13.677912 8.416641 -4.487234 -8.599075 -25.015966 -25.311122 -1.807888 -22.477677 -47.472035 88.586660 -60.904499 99.743089 0.000000 0.000000 0.000000 0.000000 0.000000 0.000000 4.810887 39.199772 -2.067659 -7.021452 22.096208 32.806900 99.908487 72.958607 -107.597991 0.000000 0.000000 0.000000 0.000000 0.000000 0.000000 
0.000000 0.000000 0.000000 0.000000 0.000000 0.000000 35.604845 19.955567 -0.314153 -2.629176 1.724031 -0.722604 0.000000 0.000000 0.000000 0.000000 0.000000 0.000000 11.603669 -1.180434 -1.676170 16.992768 2.820065 -4.222857 0.000000 0.000000 0.000000 0.000000 0.000000 0.000000 38.765354 -1.455186 2.163614 20.588941 1.067228 -12.687257 -5.590663 4.552670 -0.659969 18.385582 -12.410319 -17.267202 -13.548899 8.421838 -4.614464 -8.596661 -25.022125 -25.376685 -1.945561 -22.570654 -47.470164 88.342525 -60.952977 99.598071 0.000000 0.000000 0.000000 0.000000 0.000000 0.000000 4.724723 39.154683 -2.036400 -7.059814 22.181533 32.644147 99.518980 73.169388 -107.070095 0.000000 0.000000 0.000000 0.000000 0.000000 0.000000 
0.000000 0.000000 0.000000 0.000000 0.000000 0.000000 35.480810 20.006372 -0.139151 -1.993709 1.532757 -0.764886 0.000000 0.000000 0.000000 0.000000 0.000000 0.000000 11.970997 -1.381572 -1.936481 16.836776 2.792725 -4.032220 0.000000 0.000000 0.000000 0.000000 0.000000 0.000000 38.771398 -1.414715 2.236562 20.576137 0.993026 -12.672612 -5.563423 4.469988 -0.671708 18.454642 -12.394037 -17.150401 -13.394737 8.404531 -4.713848 -8.569542 -25.037703 -25.414989 -2.134937 -22.661201 -47.455016 88.115511 -61.010208 99.445813 0.000000 0.000000 0.000000 0.000000 0.000000 0.000000 4.632757 39.074633 -1.997516 -7.092320 22.228620 32.536820 99.102956 73.402541 -106.559235 0.000000 0.000000 0.000000 0.000000 0.000000 0.000000 
0.000000 0.000000 0.000000 0.000000 0.000000 0.000000 35.199722 20.091690 0.105845 -1.273577 1.352011 -0.822598 0.000000 0.000000 0.000000 0.000000 0.000000 0.000000 12.180192 -1.636695 -2.166435 16.867303 2.771768 -3.839544 0.000000 0.000000 0.000000 0.000000 0.000000 0.000000 38.732105 -1.346753 2.308632 20.573001 0.918922 -12.627292 -5.535358 4.370264 -0.666956 18.514554 -12.355607 -16.974640 -13.264551 8.353189 -4.757817 -8.532797 -25.081659 -25.391254 -2.353023 -22.741015 -47.460422 87.920772 -61.091901 99.259916 0.000000 0.000000 0.000000 0.000000 0.000000 0.000000 4.576034 38.980504 -1.994873 -7.155705 22.207288 32.490613 98.797066 73.558811 -106.186689 0.000000 0.000000 0.000000 0.000000 0.000000 0.000000 
